# xmcd
#
# Track frame offsets:
#	150
#	25119
#	52641
#	79347
#
# Disc length: 1324 seconds
#
# Revision: 0
# Processed by: cddbd v1.5.2PL0 Copyright (c) Steve Scherf et al.
# Submitted via: EasyCDDAExtractor 9.0.0.1
#
DISCID=21052a04
DTITLE=Ozzy Osbourne - Tweeter Center Mansfield MA 29-07-00 Disc 2
DYEAR=2000
DGENRE=Hard Rock
TTITLE0=I Don't Want To Change The World
TTITLE1=Crazy Train
TTITLE2=Paranoid
TTITLE3=Outro
EXTD=
EXTT0=
EXTT1=
EXTT2=
EXTT3=
PLAYORDER=
